<svg xmlns="http://www.w3.org/2000/svg" width="1254" height="836" viewBox="0 0 1254 836">
<g>
<path d="M 150.00 414.92 L 150.00 448.00 L 138.67 448.00 C132.43,448.00 127.03,447.70 126.67,447.33 C126.30,446.97 126.00,423.34 126.00,394.83 L 126.00 343.00 L 146.66 343.00 L 154.07 350.75 C158.15,355.01 169.22,366.49 178.67,376.27 L 195.86 394.03 L 244.50 343.00 L 265.02 343.00 L 264.76 395.25 L 264.50 447.50 L 241.50 447.50 L 241.24 414.25 C241.09,395.96 240.64,381.04 240.24,381.10 C239.83,381.15 229.65,391.75 217.60,404.65 L 195.71 428.11 L 192.23 424.80 C190.32,422.99 180.43,412.73 170.25,402.00 C160.07,391.27 151.35,382.35 150.87,382.17 C150.39,381.98 150.00,396.55 150.00,414.92 ZM 480.00 364.00 L 480.00 448.00 L 468.56 448.00 C462.27,448.00 456.88,447.62 456.60,447.16 C456.18,446.48 455.70,375.05 455.94,349.25 L 456.00 343.00 L 495.82 343.00 C520.18,343.00 537.94,343.42 541.57,344.09 C553.82,346.33 563.69,353.85 568.86,364.88 C571.13,369.72 571.50,371.82 571.50,380.02 C571.50,388.77 571.23,390.07 568.18,396.29 C564.65,403.46 558.36,409.28 550.66,412.50 L 546.91 414.07 L 549.70 417.37 C551.24,419.18 557.67,426.39 564.00,433.39 C570.33,440.39 575.65,446.54 575.83,447.06 C576.03,447.62 570.47,448.00 562.15,448.00 L 548.14 448.00 L 543.71 443.25 C536.34,435.35 526.89,424.72 523.69,420.75 L 520.67 417.00 L 490.00 417.00 L 490.00 396.00 L 511.13 396.00 C534.84,396.00 538.63,395.33 543.00,390.35 C550.06,382.30 547.42,370.37 537.58,365.90 C533.94,364.24 530.63,364.04 506.75,364.02 ZM 318.28 443.75 L 315.83 448.00 L 302.97 448.00 C295.90,448.00 289.92,447.66 289.68,447.25 C289.44,446.84 292.72,440.65 296.97,433.50 C301.22,426.35 312.48,407.23 322.00,391.00 C331.52,374.77 341.76,357.34 344.75,352.25 L 350.19 343.00 L 360.48 343.00 C361.64,343.00 362.67,342.98 363.58,342.96 C366.41,342.91 368.18,342.87 369.67,343.51 C372.64,344.79 374.46,348.76 381.30,360.65 C396.95,387.88 408.69,408.24 419.63,427.12 C425.88,437.91 431.00,447.03 431.00,447.37 C431.00,448.63 406.44,448.05 404.80,446.75 C403.93,446.06 400.20,440.10 396.51,433.50 C392.82,426.90 387.89,418.35 385.56,414.50 C383.22,410.65 376.71,399.51 371.08,389.75 C365.45,379.99 360.54,372.01 360.17,372.03 C359.80,372.04 356.76,376.88 353.41,382.78 C350.07,388.67 341.34,403.85 334.03,416.50 C326.71,429.15 319.62,441.41 318.28,443.75 ZM 711.76 446.75 C712.07,447.72 708.50,448.00 696.09,448.00 L 680.01 448.00 L 675.78 444.25 C673.46,442.19 665.08,434.52 657.16,427.21 C649.25,419.90 637.87,409.57 631.89,404.26 C625.90,398.96 621.00,394.29 621.00,393.89 C621.00,393.50 626.51,388.25 633.25,382.24 C639.99,376.23 652.62,364.94 661.32,357.15 L 677.13 343.00 L 693.57 343.00 C702.60,343.00 710.00,343.18 710.00,343.39 C710.00,343.79 697.49,354.99 669.22,379.92 C660.85,387.30 654.00,393.62 654.00,393.95 C654.00,394.54 669.59,408.62 697.93,433.64 C705.31,440.16 711.54,446.06 711.76,446.75 ZM 617.00 343.00 L 617.00 448.00 L 605.67 448.00 C599.43,448.00 594.03,447.70 593.67,447.33 C593.30,446.97 593.00,423.34 593.00,394.83 L 593.00 343.00 ZM 642.79 526.10 C634.82,530.18 623.91,527.11 619.47,519.54 C616.09,513.77 616.00,504.78 619.27,499.92 C623.20,494.10 627.36,492.00 635.00,492.00 C640.32,492.00 642.40,492.47 645.08,494.27 C650.47,497.91 653.00,502.47 653.00,508.58 C653.00,517.39 650.11,522.34 642.79,526.10 ZM 535.58 523.50 C535.48,526.12 535.06,526.54 532.23,526.81 C530.18,527.01 528.79,526.63 528.47,525.77 C528.18,525.03 528.07,517.24 528.22,508.46 L 528.50 492.50 L 537.00 492.19 C547.80,491.79 552.49,493.12 555.04,497.30 C558.11,502.34 557.61,506.59 553.46,510.74 L 549.92 514.28 L 553.95 520.39 L 557.98 526.50 L 554.89 526.82 C550.36,527.29 549.38,526.63 545.48,520.54 C542.49,515.86 541.48,515.00 538.97,515.00 C538.89,515.00 538.82,515.00 538.74,515.00 C537.79,515.00 537.16,515.00 536.72,515.29 C535.83,515.90 535.79,517.77 535.58,523.50 ZM 812.00 521.00 C812.00,526.92 811.96,527.00 809.17,527.00 C807.61,527.00 806.03,526.70 805.67,526.33 C805.30,525.97 805.00,518.09 805.00,508.83 L 805.00 492.00 L 814.55 492.00 C828.17,492.00 833.00,495.01 833.00,503.50 C833.00,511.10 827.93,515.00 818.05,515.00 L 812.00 515.00 ZM 457.73 526.04 C445.85,531.43 432.41,524.28 431.22,511.94 C430.54,504.89 433.13,498.65 438.26,494.93 C441.80,492.36 443.16,492.00 449.20,492.00 C456.95,492.00 460.79,493.51 463.48,497.62 C465.20,500.23 465.19,500.39 463.44,501.67 C460.84,503.57 459.47,503.34 456.41,500.50 C452.41,496.79 445.86,496.98 441.92,500.92 C439.41,503.44 439.00,504.61 439.00,509.29 C439.00,515.72 441.25,519.27 446.41,520.97 C450.75,522.40 454.51,521.44 457.02,518.25 C459.93,514.55 459.53,514.00 454.00,514.00 C449.33,514.00 449.00,513.83 449.00,511.50 C449.00,509.03 449.10,509.00 457.50,509.00 L 466.00 509.00 L 466.00 513.25 C465.99,518.98 462.97,523.66 457.73,526.04 ZM 737.10 525.73 C732.90,528.54 727.06,528.66 721.33,526.06 C714.48,522.95 713.55,520.60 713.15,505.30 L 712.80 492.00 L 719.79 492.00 L 720.15 504.59 C720.48,516.40 720.65,517.30 722.86,519.09 C726.23,521.81 731.52,521.57 734.55,518.55 C736.88,516.21 737.00,515.50 737.00,504.05 L 737.00 492.00 L 744.00 492.00 L 744.00 504.25 C744.00,518.22 742.81,521.92 737.10,525.73 ZM 630.31 520.54 C632.22,521.37 633.20,521.80 634.19,521.84 C635.27,521.88 636.36,521.44 638.69,520.51 L 638.90 520.42 C650.14,515.93 647.02,498.00 635.00,498.00 C632.07,498.00 630.21,498.73 627.92,500.78 C621.86,506.20 623.22,517.45 630.31,520.54 ZM 812.67 508.33 C813.94,509.60 821.57,508.99 823.78,507.44 C828.99,503.79 824.83,498.00 817.00,498.00 L 812.00 498.00 L 812.00 502.83 C812.00,505.49 812.30,507.97 812.67,508.33 ZM 535.40 507.61 C536.18,509.64 544.85,509.45 547.17,507.35 C551.86,503.11 547.47,497.64 539.83,498.19 C535.59,498.49 535.49,498.58 535.18,502.36 C535.01,504.48 535.11,506.84 535.40,507.61 Z" fill="rgb(2,15,30)"/>
<path d="M 982.07 450.39 C975.46,452.35 952.84,452.47 945.99,450.57 C932.39,446.82 918.69,436.43 912.78,425.41 C907.64,415.83 907.03,410.51 907.01,375.25 L 907.00 343.00 L 932.00 343.00 L 932.01 376.25 C932.02,408.97 932.06,409.58 934.35,414.51 C936.85,419.88 942.45,425.45 947.43,427.54 C962.29,433.74 981.51,429.96 989.67,419.22 C993.65,413.99 994.94,409.60 995.16,400.50 L 995.33 393.50 L 995.91 398.95 C996.49,404.31 996.59,404.45 1001.50,406.96 C1007.97,410.25 1015.23,413.42 1016.50,413.50 C1017.05,413.54 1017.88,413.10 1018.33,412.53 C1020.24,410.17 1017.75,418.98 1014.81,425.00 C1009.09,436.68 997.23,445.89 982.07,450.39 ZM 887.00 342.98 L 887.00 364.00 L 784.93 364.00 L 785.50 343.50 L 836.25 343.24 ZM 768.00 404.89 L 768.00 446.79 L 764.25 447.14 C762.19,447.34 756.67,447.27 752.00,447.00 L 743.50 446.50 L 743.24 415.30 L 742.97 384.09 L 754.71 373.55 C761.16,367.75 766.79,363.00 767.22,363.00 C767.65,363.00 768.00,381.85 768.00,404.89 ZM 841.25 439.18 C833.80,446.51 829.67,448.76 826.25,447.35 C825.28,446.95 825.00,438.41 825.00,409.42 L 825.00 372.00 L 849.00 372.00 L 849.00 431.55 ZM 289.50 509.03 C290.60,509.49 254.04,509.89 208.25,509.93 C134.89,509.99 125.00,509.82 125.00,508.50 C125.00,507.18 135.17,507.02 211.25,507.18 C258.69,507.28 295.25,507.55 292.50,507.78 C288.68,508.11 287.97,508.40 289.50,509.03 ZM 767.81 347.18 C767.52,351.14 766.86,351.93 755.25,362.27 L 743.00 373.18 L 743.00 357.21 L 750.88 350.11 C758.28,343.44 759.05,343.00 763.44,343.00 L 768.11 343.00 ZM 991.09 509.08 C991.93,509.61 968.32,509.98 932.92,509.98 C900.15,509.99 873.03,509.70 872.67,509.33 C872.30,508.97 872.00,508.29 872.00,507.83 C872.00,507.38 899.56,507.06 933.25,507.14 C966.94,507.21 993.41,507.48 992.09,507.73 C990.22,508.08 990.00,508.38 991.09,509.08 ZM 1044.28 446.28 C1047.03,446.62 1046.88,446.70 1043.25,446.84 L 1039.00 447.00 L 1039.08 441.75 C1039.16,436.16 1039.46,436.26 1040.45,442.19 C1040.99,445.43 1041.46,445.93 1044.28,446.28 ZM 926.38 347.55 C927.33,350.02 930.00,349.25 930.00,346.50 C930.00,344.99 929.43,344.00 928.56,344.00 C926.71,344.00 925.67,345.69 926.38,347.55 Z" fill="rgb(201,25,120)"/>
<path d="M 1044.28 446.28 C1041.46,445.93 1040.99,445.43 1040.45,442.19 C1039.77,438.08 1039.41,436.77 1039.23,438.22 C1039.03,431.04 1039.00,418.15 1039.00,394.93 L 1039.00 343.00 L 1076.25 343.02 C1116.49,343.03 1121.03,343.48 1129.23,348.29 C1138.34,353.63 1144.24,362.46 1145.98,373.35 C1148.52,389.30 1142.80,403.54 1130.42,412.05 C1122.44,417.55 1118.66,418.24 1093.75,418.73 L 1071.00 419.19 L 1071.00 397.00 L 1091.05 397.00 C1113.11,397.00 1114.56,396.69 1119.48,390.84 C1122.01,387.84 1122.17,387.09 1121.84,379.88 C1121.55,373.41 1121.11,371.74 1119.12,369.63 C1114.17,364.36 1112.11,364.00 1086.60,364.00 L 1063.00 364.00 L 1063.00 448.00 L 1052.75 447.88 C1047.11,447.82 1041.71,447.56 1040.75,447.31 C1040.55,447.26 1040.38,447.16 1040.22,446.95 L 1043.25 446.84 C1046.88,446.70 1047.03,446.62 1044.28,446.28 ZM 1018.93 412.21 C1018.84,412.06 1018.65,412.15 1018.33,412.53 C1017.88,413.10 1017.05,413.54 1016.50,413.50 C1015.23,413.42 1007.97,410.25 1001.50,406.96 C996.59,404.45 996.49,404.31 995.91,398.95 L 995.33 393.50 L 995.16 400.50 C995.06,404.48 994.76,407.56 994.12,410.21 C994.67,405.34 994.99,386.55 994.99,358.75 L 995.00 310.00 L 989.56 310.00 C986.57,310.00 983.84,309.55 983.51,309.01 C982.99,308.18 1007.53,266.00 1008.52,266.00 C1008.70,266.00 1011.22,270.16 1014.11,275.25 C1017.00,280.34 1022.44,289.64 1026.21,295.92 C1029.97,302.21 1032.89,307.83 1032.69,308.42 C1032.47,309.09 1029.97,309.37 1026.17,309.16 L 1020.00 308.82 L 1020.00 359.20 C1020.00,389.77 1019.95,403.89 1018.93,412.21 ZM 377.58 447.13 C374.52,447.96 344.16,447.96 341.16,447.13 L 338.83 446.49 L 340.77 443.99 C342.60,441.64 345.81,436.21 355.40,419.25 C357.66,415.26 359.83,412.11 360.24,412.25 C360.64,412.39 365.23,420.15 370.43,429.50 C379.60,445.97 379.82,446.52 377.58,447.13 ZM 991.09 509.08 C990.00,508.38 990.22,508.08 992.09,507.73 C993.41,507.48 966.95,507.21 933.26,507.14 C954.50,507.05 979.85,507.00 1007.00,507.00 C1126.33,507.00 1142.00,507.17 1142.00,508.50 C1142.00,509.83 1126.41,510.00 1007.67,510.00 C987.91,510.00 969.09,509.98 952.12,509.94 C976.57,509.83 991.76,509.50 991.09,509.08 ZM 289.50 509.03 C287.97,508.40 288.68,508.11 292.50,507.78 C295.25,507.55 258.69,507.28 211.25,507.18 C189.41,507.13 173.00,507.11 160.70,507.14 C180.32,507.03 210.34,507.00 256.00,507.00 C371.78,507.00 387.00,507.17 387.00,508.50 C387.00,509.83 371.78,510.00 256.00,510.00 C224.06,510.00 199.78,509.99 181.35,509.94 C189.20,509.94 198.12,509.94 208.25,509.93 C254.04,509.89 290.60,509.49 289.50,509.03 ZM 926.38 347.55 C925.67,345.69 926.71,344.00 928.56,344.00 C929.43,344.00 930.00,344.99 930.00,346.50 C930.00,349.25 927.33,350.02 926.38,347.55 ZM 1005.11 437.75 C1009.21,434.00 1012.51,429.70 1014.81,425.00 C1016.31,421.94 1017.69,418.15 1018.43,415.48 C1017.58,419.95 1016.26,422.62 1014.22,426.43 C1012.04,430.50 1008.92,434.33 1005.11,437.75 ZM 960.83 430.48 C956.25,430.26 951.66,429.30 947.43,427.54 C949.13,428.24 953.38,429.34 956.89,429.98 C958.20,430.22 959.52,430.38 960.83,430.48 ZM 988.85 420.24 C986.26,423.25 982.76,425.66 978.73,427.39 C982.69,425.62 986.16,423.19 988.85,420.24 Z" fill="rgb(241,114,30)"/>
<path d="M 0.00 418.00 L 0.00 0.00 L 627.00 0.00 L 1254.00 0.00 L 1254.00 418.00 L 1254.00 836.00 L 627.00 836.00 L 0.00 836.00 L 0.00 418.00 ZM 457.73 526.04 C462.97,523.66 465.99,518.98 466.00,513.25 L 466.00 509.00 L 457.50 509.00 C449.10,509.00 449.00,509.03 449.00,511.50 C449.00,513.83 449.33,514.00 454.00,514.00 C459.53,514.00 459.93,514.55 457.02,518.25 C454.51,521.44 450.75,522.40 446.41,520.97 C441.25,519.27 439.00,515.72 439.00,509.29 C439.00,504.61 439.41,503.44 441.92,500.92 C445.86,496.98 452.41,496.79 456.41,500.50 C459.47,503.34 460.84,503.57 463.44,501.67 C465.19,500.39 465.20,500.23 463.48,497.62 C460.79,493.51 456.95,492.00 449.20,492.00 C443.16,492.00 441.80,492.36 438.26,494.93 C433.13,498.65 430.54,504.89 431.22,511.94 C432.41,524.28 445.85,531.43 457.73,526.04 ZM 642.79 526.10 C650.11,522.34 653.00,517.39 653.00,508.58 C653.00,502.47 650.47,497.91 645.08,494.27 C642.40,492.47 640.32,492.00 635.00,492.00 C627.36,492.00 623.20,494.10 619.27,499.92 C616.00,504.78 616.09,513.77 619.47,519.54 C623.91,527.11 634.82,530.18 642.79,526.10 ZM 737.10 525.73 C742.81,521.92 744.00,518.22 744.00,504.25 L 744.00 492.00 L 740.50 492.00 L 737.00 492.00 L 737.00 504.05 C737.00,515.50 736.88,516.21 734.55,518.55 C731.52,521.57 726.23,521.81 722.86,519.09 C720.65,517.30 720.48,516.40 720.15,504.59 L 719.79 492.00 L 716.30 492.00 L 712.80 492.00 L 713.15 505.30 C713.55,520.60 714.48,522.95 721.33,526.06 C727.06,528.66 732.90,528.54 737.10,525.73 ZM 535.58 523.50 C535.91,514.78 535.82,515.00 538.97,515.00 C541.48,515.00 542.49,515.86 545.48,520.54 C549.38,526.63 550.36,527.29 554.89,526.82 L 557.98 526.50 L 553.95 520.39 L 549.92 514.28 L 553.46 510.74 C557.61,506.59 558.11,502.34 555.04,497.30 C552.49,493.12 547.80,491.79 537.00,492.19 L 528.50 492.50 L 528.22 508.46 C528.07,517.24 528.18,525.03 528.47,525.77 C528.79,526.63 530.18,527.01 532.23,526.81 C535.06,526.54 535.48,526.12 535.58,523.50 ZM 812.00 521.00 L 812.00 515.00 L 818.05 515.00 C827.93,515.00 833.00,511.10 833.00,503.50 C833.00,495.01 828.17,492.00 814.55,492.00 L 805.00 492.00 L 805.00 508.83 C805.00,518.09 805.30,525.97 805.67,526.33 C806.03,526.70 807.61,527.00 809.17,527.00 C811.96,527.00 812.00,526.92 812.00,521.00 ZM 387.00 508.50 C387.00,507.17 371.78,507.00 256.00,507.00 C140.22,507.00 125.00,507.17 125.00,508.50 C125.00,509.83 140.22,510.00 256.00,510.00 C371.78,510.00 387.00,509.83 387.00,508.50 ZM 1142.00 508.50 C1142.00,507.17 1126.33,507.00 1007.00,507.00 C932.75,507.00 872.00,507.38 872.00,507.83 C872.00,508.29 872.30,508.97 872.67,509.33 C873.03,509.70 933.78,510.00 1007.67,510.00 C1126.41,510.00 1142.00,509.83 1142.00,508.50 ZM 982.07 450.39 C996.37,446.14 1008.50,437.10 1014.22,426.43 C1019.84,415.92 1020.00,414.07 1020.00,359.20 L 1020.00 308.82 L 1026.17 309.16 C1029.97,309.37 1032.47,309.09 1032.69,308.42 C1032.89,307.83 1029.97,302.21 1026.21,295.92 C1022.44,289.64 1017.00,280.34 1014.11,275.25 C1011.22,270.16 1008.70,266.00 1008.52,266.00 C1007.53,266.00 982.99,308.18 983.51,309.01 C983.84,309.55 986.57,310.00 989.56,310.00 L 995.00 310.00 L 994.99 358.75 C994.99,389.25 994.60,408.89 993.95,411.22 C990.29,424.42 973.39,432.97 956.89,429.98 C953.38,429.34 949.13,428.24 947.43,427.54 C942.45,425.45 936.85,419.88 934.35,414.51 C932.06,409.58 932.02,408.97 932.01,376.25 L 932.00 343.00 L 919.50 343.00 L 907.00 343.00 L 907.01 375.25 C907.03,410.51 907.64,415.83 912.78,425.41 C918.69,436.43 932.39,446.82 945.99,450.57 C952.84,452.47 975.46,452.35 982.07,450.39 ZM 150.00 414.92 C150.00,396.55 150.39,381.98 150.87,382.17 C151.35,382.35 160.07,391.27 170.25,402.00 C180.43,412.73 190.32,422.99 192.23,424.80 L 195.71 428.11 L 217.60 404.65 C229.65,391.75 239.83,381.15 240.24,381.10 C240.64,381.04 241.09,395.96 241.24,414.25 L 241.50 447.50 L 253.00 447.50 L 264.50 447.50 L 264.76 395.25 L 265.02 343.00 L 254.76 343.00 L 244.50 343.00 L 220.18 368.52 L 195.86 394.03 L 178.67 376.27 C169.22,366.49 158.15,355.01 154.07,350.75 L 146.66 343.00 L 136.33 343.00 L 126.00 343.00 L 126.00 394.83 C126.00,423.34 126.30,446.97 126.67,447.33 C127.03,447.70 132.43,448.00 138.67,448.00 L 150.00 448.00 L 150.00 414.92 ZM 318.28 443.75 C319.62,441.41 326.71,429.15 334.03,416.50 C341.34,403.85 350.07,388.67 353.41,382.78 C356.76,376.88 359.80,372.04 360.17,372.03 C360.54,372.01 365.45,379.99 371.08,389.75 C376.71,399.51 383.22,410.65 385.56,414.50 C387.89,418.35 392.82,426.90 396.51,433.50 C400.20,440.10 403.93,446.06 404.80,446.75 C406.44,448.05 431.00,448.63 431.00,447.37 C431.00,447.03 425.88,437.91 419.63,427.12 C408.69,408.24 396.95,387.88 381.30,360.65 C369.95,340.90 372.43,343.00 360.48,343.00 L 350.19 343.00 L 344.75 352.25 C341.76,357.34 331.52,374.77 322.00,391.00 C312.48,407.23 301.22,426.35 296.97,433.50 C292.72,440.65 289.44,446.84 289.68,447.25 C289.92,447.66 295.90,448.00 302.97,448.00 L 315.83 448.00 L 318.28 443.75 ZM 377.58 447.13 C379.82,446.52 379.60,445.97 370.43,429.50 C365.23,420.15 360.64,412.39 360.24,412.25 C359.83,412.11 357.66,415.26 355.40,419.25 C345.81,436.21 342.60,441.64 340.77,443.99 L 338.83 446.49 L 341.16 447.13 C344.16,447.96 374.52,447.96 377.58,447.13 ZM 480.00 406.00 L 480.00 364.00 L 506.75 364.02 C530.63,364.04 533.94,364.24 537.58,365.90 C547.42,370.37 550.06,382.30 543.00,390.35 C538.63,395.33 534.84,396.00 511.13,396.00 L 490.00 396.00 L 490.00 406.50 L 490.00 417.00 L 505.33 417.00 L 520.67 417.00 L 523.69 420.75 C526.89,424.72 536.34,435.35 543.71,443.25 L 548.14 448.00 L 562.15 448.00 C570.47,448.00 576.03,447.62 575.83,447.06 C575.65,446.54 570.33,440.39 564.00,433.39 C557.67,426.39 551.24,419.18 549.70,417.37 L 546.91 414.07 L 550.66 412.50 C558.36,409.28 564.65,403.46 568.18,396.29 C571.23,390.07 571.50,388.77 571.50,380.02 C571.50,371.82 571.13,369.72 568.86,364.88 C563.69,353.85 553.82,346.33 541.57,344.09 C537.94,343.42 520.18,343.00 495.82,343.00 L 456.00 343.00 L 455.94 349.25 C455.70,375.05 456.18,446.48 456.60,447.16 C456.88,447.62 462.27,448.00 468.56,448.00 L 480.00 448.00 L 480.00 406.00 ZM 617.00 395.50 L 617.00 343.00 L 605.00 343.00 L 593.00 343.00 L 593.00 394.83 C593.00,423.34 593.30,446.97 593.67,447.33 C594.03,447.70 599.43,448.00 605.67,448.00 L 617.00 448.00 L 617.00 395.50 ZM 711.76 446.75 C711.54,446.06 705.31,440.16 697.93,433.64 C669.59,408.62 654.00,394.54 654.00,393.95 C654.00,393.62 660.85,387.30 669.22,379.92 C697.49,354.99 710.00,343.79 710.00,343.39 C710.00,343.18 702.60,343.00 693.57,343.00 L 677.13 343.00 L 661.32 357.15 C652.62,364.94 639.99,376.23 633.25,382.24 C626.51,388.25 621.00,393.50 621.00,393.89 C621.00,394.29 625.90,398.96 631.89,404.26 C637.87,409.57 649.25,419.90 657.16,427.21 C665.08,434.52 673.46,442.19 675.78,444.25 L 680.01 448.00 L 696.09 448.00 C708.50,448.00 712.07,447.72 711.76,446.75 ZM 768.00 404.89 C768.00,381.85 767.65,363.00 767.22,363.00 C766.79,363.00 761.16,367.75 754.71,373.55 L 742.97 384.09 L 743.24 415.30 L 743.50 446.50 L 752.00 447.00 C756.67,447.27 762.19,447.34 764.25,447.14 L 768.00 446.79 L 768.00 404.89 ZM 841.25 439.18 L 849.00 431.55 L 849.00 401.77 L 849.00 372.00 L 837.00 372.00 L 825.00 372.00 L 825.00 409.42 C825.00,438.41 825.28,446.95 826.25,447.35 C829.67,448.76 833.80,446.51 841.25,439.18 ZM 1063.00 406.00 L 1063.00 364.00 L 1086.60 364.00 C1112.11,364.00 1114.17,364.36 1119.12,369.63 C1121.11,371.74 1121.55,373.41 1121.84,379.88 C1122.17,387.09 1122.01,387.84 1119.48,390.84 C1114.56,396.69 1113.11,397.00 1091.05,397.00 L 1071.00 397.00 L 1071.00 408.09 L 1071.00 419.19 L 1093.75 418.73 C1118.66,418.24 1122.44,417.55 1130.42,412.05 C1142.80,403.54 1148.52,389.30 1145.98,373.35 C1144.24,362.46 1138.34,353.63 1129.23,348.29 C1121.03,343.48 1116.49,343.03 1076.25,343.02 L 1039.00 343.00 L 1039.00 394.93 C1039.00,443.54 1039.11,446.88 1040.75,447.31 C1041.71,447.56 1047.11,447.82 1052.75,447.88 L 1063.00 448.00 L 1063.00 406.00 ZM 767.81 347.18 L 768.11 343.00 L 763.44 343.00 C759.05,343.00 758.28,343.44 750.88,350.11 L 743.00 357.21 L 743.00 365.20 L 743.00 373.18 L 755.25 362.27 C766.86,351.93 767.52,351.14 767.81,347.18 ZM 887.00 353.49 L 887.00 342.98 L 836.25 343.24 L 785.50 343.50 L 785.22 353.75 L 784.93 364.00 L 835.97 364.00 L 887.00 364.00 L 887.00 353.49 ZM 630.31 520.54 C623.22,517.45 621.86,506.20 627.92,500.78 C630.21,498.73 632.07,498.00 635.00,498.00 C647.02,498.00 650.14,515.93 638.90,520.42 C634.22,522.30 634.36,522.29 630.31,520.54 ZM 535.40 507.61 C535.11,506.84 535.01,504.48 535.18,502.36 C535.49,498.58 535.59,498.49 539.83,498.19 C547.47,497.64 551.86,503.11 547.17,507.35 C544.85,509.45 536.18,509.64 535.40,507.61 ZM 812.67 508.33 C812.30,507.97 812.00,505.49 812.00,502.83 L 812.00 498.00 L 817.00 498.00 C824.83,498.00 828.99,503.79 823.78,507.44 C821.57,508.99 813.94,509.60 812.67,508.33 Z" fill="rgb(254,254,254)"/>
</g>
</svg>